<mxfile host="app.diagrams.net" modified="2023-05-10T17:26:09.782Z" agent="Mozilla/5.0 (Windows NT 10.0; Win64; x64) AppleWebKit/537.36 (KHTML, like Gecko) Chrome/113.0.0.0 Safari/537.36" etag="czJX8-5XOa25DC11PEyl" version="21.2.3" type="device">
  <diagram id="JD9g9ikQCyhjhphpveQB" name="Trang-1">
    <mxGraphModel dx="2562" dy="730" grid="1" gridSize="16" guides="1" tooltips="1" connect="1" arrows="1" fold="1" page="1" pageScale="1" pageWidth="1169" pageHeight="827" background="none" math="0" shadow="1">
      <root>
        <mxCell id="0" />
        <mxCell id="1" parent="0" />
        <mxCell id="node12" value="&lt;p style=&quot;margin: 4px 0px 0px; text-align: center; font-size: 15px;&quot;&gt;&lt;b style=&quot;font-size: 15px;&quot;&gt;ChiTietDichVu&lt;/b&gt;&lt;/p&gt;&lt;hr style=&quot;font-size: 15px;&quot;&gt;&lt;p style=&quot;margin: 0px 0px 0px 4px; line-height: 1.6; font-size: 15px;&quot;&gt;- hoaDon: HoaDon&lt;br style=&quot;border-color: var(--border-color); font-size: 15px;&quot;&gt;- soLuong: int&lt;br style=&quot;border-color: var(--border-color); font-size: 15px;&quot;&gt;- dichVu: DichVu&lt;/p&gt;&lt;hr style=&quot;font-size: 15px;&quot;&gt;&lt;p style=&quot;margin: 0px 0px 0px 4px; line-height: 1.6; font-size: 15px;&quot;&gt;+ ChiTietDichVu(PhieuDatPhong, DichVu, int, double)&lt;br style=&quot;border-color: var(--border-color); font-size: 15px;&quot;&gt;+ ChiTietDichVu()&lt;br style=&quot;font-size: 15px;&quot;&gt;&lt;/p&gt;&lt;p style=&quot;margin: 0px 0px 0px 4px; line-height: 1.6; font-size: 15px;&quot;&gt;+ Các cặp get,set&lt;/p&gt;" style="verticalAlign=top;align=left;overflow=fill;fontSize=15;fontFamily=Helvetica;html=1;rounded=0;shadow=0;comic=0;labelBackgroundColor=none;strokeWidth=1;fillColor=#f8cecc;strokeColor=#b85450;" parent="1" vertex="1">
          <mxGeometry x="-102" y="1312" width="220" height="242" as="geometry" />
        </mxCell>
        <mxCell id="node13" value="&lt;p style=&quot;margin: 4px 0px 0px; text-align: center; font-size: 15px;&quot;&gt;&lt;b style=&quot;font-size: 15px;&quot;&gt;DichVu&lt;/b&gt;&lt;/p&gt;&lt;hr style=&quot;font-size: 15px;&quot;&gt;&lt;p style=&quot;margin: 0px 0px 0px 4px; line-height: 1.6; font-size: 15px;&quot;&gt;- maDichVu: long&lt;br style=&quot;border-color: var(--border-color); font-size: 15px;&quot;&gt;- giaDichVu: double&lt;br style=&quot;border-color: var(--border-color); font-size: 15px;&quot;&gt;- tenDichVu: String&lt;/p&gt;&lt;p style=&quot;margin: 0px 0px 0px 4px; line-height: 1.6; font-size: 15px;&quot;&gt;- soLuong: int&lt;/p&gt;&lt;p style=&quot;margin: 0px 0px 0px 4px; line-height: 1.6; font-size: 15px;&quot;&gt;- loaiDichVu: LoaiDichVu&lt;/p&gt;&lt;hr style=&quot;font-size: 15px;&quot;&gt;&lt;p style=&quot;margin: 0px 0px 0px 4px; line-height: 1.6; font-size: 15px;&quot;&gt;+ DichVu(long, String, double, LoaiDichVu)&lt;br style=&quot;border-color: var(--border-color); font-size: 15px;&quot;&gt;+ DichVu()&lt;br style=&quot;font-size: 15px;&quot;&gt;&lt;/p&gt;&lt;p style=&quot;margin: 0px 0px 0px 4px; line-height: 1.6; font-size: 15px;&quot;&gt;+ Các cặp get,set&lt;/p&gt;" style="verticalAlign=top;align=left;overflow=fill;fontSize=15;fontFamily=Helvetica;html=1;rounded=0;shadow=0;comic=0;labelBackgroundColor=none;strokeWidth=1;fillColor=#f8cecc;strokeColor=#b85450;" parent="1" vertex="1">
          <mxGeometry x="-104" y="1052.47" width="200" height="245" as="geometry" />
        </mxCell>
        <mxCell id="node2" value="&lt;p style=&quot;margin: 4px 0px 0px; text-align: center; font-size: 15px;&quot;&gt;&lt;b style=&quot;font-size: 15px;&quot;&gt;HoaDon&lt;/b&gt;&lt;/p&gt;&lt;hr style=&quot;font-size: 15px;&quot;&gt;&lt;p style=&quot;margin: 0px 0px 0px 4px; line-height: 1.6; font-size: 15px;&quot;&gt;- nhanVien: NhanVien&lt;/p&gt;&lt;p style=&quot;margin: 0px 0px 0px 4px; line-height: 1.6; font-size: 15px;&quot;&gt;- phieuDatPhong: PhieuDatPhong&lt;br style=&quot;border-color: var(--border-color); font-size: 15px;&quot;&gt;- tienNhan: double&lt;br style=&quot;border-color: var(--border-color);&quot;&gt;- maHoaDon: long&lt;/p&gt;&lt;p style=&quot;margin: 0px 0px 0px 4px; line-height: 1.6; font-size: 15px;&quot;&gt;- ngayNhanPhong: Date&lt;/p&gt;&lt;p style=&quot;margin: 0px 0px 0px 4px; line-height: 1.6; font-size: 15px;&quot;&gt;- ngayTraPhong: Date&lt;br style=&quot;border-color: var(--border-color); font-size: 15px;&quot;&gt;- ngayLap: Date&lt;/p&gt;&lt;p style=&quot;margin: 0px 0px 0px 4px; line-height: 1.6; font-size: 15px;&quot;&gt;- khachHang: KhachHang&lt;/p&gt;&lt;p style=&quot;margin: 0px 0px 0px 4px; line-height: 1.6; font-size: 15px;&quot;&gt;- dsChiTietHoaDon: List&amp;lt;ChiTietHoaDon&amp;gt;&lt;/p&gt;&lt;p style=&quot;margin: 0px 0px 0px 4px; line-height: 1.6; font-size: 15px;&quot;&gt;- dsChiTietDichVu: List&amp;lt;ChiTietDichVu&amp;gt;&lt;/p&gt;&lt;hr style=&quot;font-size: 15px;&quot;&gt;&lt;p style=&quot;margin: 0px 0px 0px 4px; line-height: 1.6; font-size: 15px;&quot;&gt;+ HoaDon()&lt;br style=&quot;border-color: var(--border-color); font-size: 15px;&quot;&gt;+ HoaDon(long, Date, double, PhieuDatPhong, NhanVien)&lt;br style=&quot;font-size: 15px;&quot;&gt;&lt;/p&gt;&lt;p style=&quot;margin: 0px 0px 0px 4px; line-height: 1.6; font-size: 15px;&quot;&gt;+ Các cặp get,set&lt;/p&gt;&lt;p style=&quot;margin: 0px 0px 0px 4px; line-height: 1.6; font-size: 15px;&quot;&gt;+ tinhTongTien(): double&lt;/p&gt;" style="verticalAlign=top;align=left;overflow=fill;fontSize=15;fontFamily=Helvetica;html=1;rounded=0;shadow=0;comic=0;labelBackgroundColor=none;strokeWidth=1;fillColor=#f8cecc;strokeColor=#b85450;" parent="1" vertex="1">
          <mxGeometry x="170" y="944" width="288" height="416" as="geometry" />
        </mxCell>
        <mxCell id="node1" value="&lt;p style=&quot;margin: 4px 0px 0px; text-align: center; font-size: 15px;&quot;&gt;&lt;b style=&quot;font-size: 15px;&quot;&gt;KhachHang&lt;/b&gt;&lt;/p&gt;&lt;hr style=&quot;font-size: 15px;&quot;&gt;&lt;p style=&quot;margin: 0px 0px 0px 4px; line-height: 1.6; font-size: 15px;&quot;&gt;- diaChiKH: String&lt;br style=&quot;border-color: var(--border-color); font-size: 15px;&quot;&gt;- maKhachHang: int&lt;br style=&quot;border-color: var(--border-color); font-size: 15px;&quot;&gt;- cccdKhachHang: String&lt;br style=&quot;border-color: var(--border-color); font-size: 15px;&quot;&gt;- emailKH: String&lt;br style=&quot;border-color: var(--border-color); font-size: 15px;&quot;&gt;- hoTen: String&lt;br style=&quot;border-color: var(--border-color); font-size: 15px;&quot;&gt;- soDienThoaiKH: String&lt;/p&gt;&lt;hr style=&quot;font-size: 15px;&quot;&gt;&lt;p style=&quot;margin: 0px 0px 0px 4px; line-height: 1.6; font-size: 15px;&quot;&gt;+ KhachHang(int, String, String, String, String, String)&lt;br style=&quot;border-color: var(--border-color); font-size: 15px;&quot;&gt;+ KhachHang()&lt;br style=&quot;font-size: 15px;&quot;&gt;&lt;/p&gt;&lt;p style=&quot;margin: 0px 0px 0px 4px; line-height: 1.6; font-size: 15px;&quot;&gt;+ Các cặp get,set&lt;/p&gt;" style="verticalAlign=top;align=left;overflow=fill;fontSize=15;fontFamily=Helvetica;html=1;rounded=0;shadow=0;comic=0;labelBackgroundColor=none;strokeWidth=1;fillColor=#f8cecc;strokeColor=#b85450;" parent="1" vertex="1">
          <mxGeometry x="1028" y="812" width="172" height="276" as="geometry" />
        </mxCell>
        <mxCell id="node14" value="&lt;p style=&quot;margin: 4px 0px 0px; text-align: center; font-size: 15px;&quot;&gt;&lt;b style=&quot;font-size: 15px;&quot;&gt;LoaiPhong&lt;/b&gt;&lt;/p&gt;&lt;hr style=&quot;font-size: 15px;&quot;&gt;&lt;p style=&quot;margin: 0px 0px 0px 4px; line-height: 1.6; font-size: 15px;&quot;&gt;- maLoaiPhong: long&lt;br style=&quot;border-color: var(--border-color); font-size: 15px;&quot;&gt;- tenLoaiPhong: String&lt;br style=&quot;border-color: var(--border-color); font-size: 15px;&quot;&gt;-&amp;nbsp;moTaLoaiPhong: String&lt;/p&gt;&lt;hr style=&quot;font-size: 15px;&quot;&gt;&lt;p style=&quot;margin: 0px 0px 0px 4px; line-height: 1.6; font-size: 15px;&quot;&gt;+ LoaiPhong(long, String, String)&lt;br style=&quot;border-color: var(--border-color); font-size: 15px;&quot;&gt;+ LoaiPhong()&lt;br style=&quot;font-size: 15px;&quot;&gt;&lt;/p&gt;&lt;p style=&quot;margin: 0px 0px 0px 4px; line-height: 1.6; font-size: 15px;&quot;&gt;+ Các cặp get,set&lt;/p&gt;" style="verticalAlign=top;align=left;overflow=fill;fontSize=15;fontFamily=Helvetica;html=1;rounded=0;shadow=0;comic=0;labelBackgroundColor=none;strokeWidth=1;fillColor=#f8cecc;strokeColor=#b85450;" parent="1" vertex="1">
          <mxGeometry x="1020" y="306" width="180" height="215" as="geometry" />
        </mxCell>
        <mxCell id="node4" value="&lt;p style=&quot;margin: 4px 0px 0px; text-align: center; font-size: 15px;&quot;&gt;&lt;b style=&quot;font-size: 15px;&quot;&gt;NhanVien&lt;/b&gt;&lt;/p&gt;&lt;hr style=&quot;font-size: 15px;&quot;&gt;&lt;p style=&quot;margin: 0px 0px 0px 4px; line-height: 1.6; font-size: 15px;&quot;&gt;- taiKhoan: TaiKhoan&lt;br style=&quot;border-color: var(--border-color); font-size: 15px;&quot;&gt;- hoTen: String&lt;br style=&quot;border-color: var(--border-color); font-size: 15px;&quot;&gt;- cccd: String&lt;br style=&quot;border-color: var(--border-color); font-size: 15px;&quot;&gt;- ngaySinh: Date&lt;br style=&quot;border-color: var(--border-color); font-size: 15px;&quot;&gt;- email: String&lt;br style=&quot;border-color: var(--border-color); font-size: 15px;&quot;&gt;- ngayVaoLam: Date&lt;br style=&quot;border-color: var(--border-color); font-size: 15px;&quot;&gt;- maNhanVien: long&lt;br style=&quot;border-color: var(--border-color); font-size: 15px;&quot;&gt;- luongCoBan: double&lt;br style=&quot;border-color: var(--border-color); font-size: 15px;&quot;&gt;- diaChi: String&lt;br style=&quot;border-color: var(--border-color); font-size: 15px;&quot;&gt;- soDienThoai: String&lt;/p&gt;&lt;hr style=&quot;font-size: 15px;&quot;&gt;&lt;p style=&quot;margin: 0px 0px 0px 4px; line-height: 1.6; font-size: 15px;&quot;&gt;+ NhanVien(long, String, String, String, String, String, Date, double, Date, KhachSan, TaiKhoan, PhongBan)&lt;br style=&quot;border-color: var(--border-color); font-size: 15px;&quot;&gt;+ NhanVien()&lt;br style=&quot;font-size: 15px;&quot;&gt;&lt;/p&gt;&lt;p style=&quot;margin: 0px 0px 0px 4px; line-height: 1.6; font-size: 15px;&quot;&gt;+ Các cặp get,set&lt;/p&gt;" style="verticalAlign=top;align=left;overflow=fill;fontSize=15;fontFamily=Helvetica;html=1;rounded=0;shadow=0;comic=0;labelBackgroundColor=none;strokeWidth=1;fillColor=#f8cecc;strokeColor=#b85450;" parent="1" vertex="1">
          <mxGeometry x="176" y="448" width="178" height="412" as="geometry" />
        </mxCell>
        <mxCell id="node3" value="&lt;p style=&quot;margin: 4px 0px 0px; text-align: center; font-size: 15px;&quot;&gt;&lt;b style=&quot;font-size: 15px;&quot;&gt;PhieuDatPhong&lt;/b&gt;&lt;/p&gt;&lt;hr style=&quot;font-size: 15px;&quot;&gt;&lt;p style=&quot;margin: 0px 0px 0px 4px; line-height: 1.6; font-size: 15px;&quot;&gt;- daNhanPhong: boolean&lt;br style=&quot;border-color: var(--border-color); font-size: 15px;&quot;&gt;- maPhieuDatPhong: long&lt;br style=&quot;border-color: var(--border-color); font-size: 15px;&quot;&gt;- dsChiTietPhieuDatPhong;: List&amp;lt;ChiTietPhieuDatPhong&amp;gt;&lt;br style=&quot;border-color: var(--border-color); font-size: 15px;&quot;&gt;- ngayTraPhong: Date&lt;br style=&quot;border-color: var(--border-color); font-size: 15px;&quot;&gt;- ngayDatPhong: Date&lt;br style=&quot;border-color: var(--border-color); font-size: 15px;&quot;&gt;- ngayNhanPhong: Date&lt;br style=&quot;border-color: var(--border-color); font-size: 15px;&quot;&gt;- ghiChuDatPhong: String&lt;br style=&quot;border-color: var(--border-color); font-size: 15px;&quot;&gt;- giamGia: double&lt;/p&gt;&lt;p style=&quot;margin: 0px 0px 0px 4px; line-height: 1.6; font-size: 15px;&quot;&gt;- trangThaiDatPhong: TrangThaiDatPhong&lt;br style=&quot;border-color: var(--border-color); font-size: 15px;&quot;&gt;- khachHang: KhachHang&lt;/p&gt;&lt;hr style=&quot;font-size: 15px;&quot;&gt;&lt;p style=&quot;margin: 0px 0px 0px 4px; line-height: 1.6; font-size: 15px;&quot;&gt;+ PhieuDatPhong(long, Date, double, String, Date, Date, boolean, double, List&amp;lt;Phong&amp;gt;, List&amp;lt;ChiTietDichVu&amp;gt;, KhachHang, NhanVien)&lt;br style=&quot;border-color: var(--border-color); font-size: 15px;&quot;&gt;+ PhieuDatPhong()&lt;br style=&quot;font-size: 15px;&quot;&gt;&lt;/p&gt;&lt;p style=&quot;margin: 0px 0px 0px 4px; line-height: 1.6; font-size: 15px;&quot;&gt;+ Các cặp get,set&lt;/p&gt;&lt;p style=&quot;margin: 0px 0px 0px 4px; line-height: 1.6; font-size: 15px;&quot;&gt;+ tinhTongTien(): double&lt;/p&gt;" style="verticalAlign=top;align=left;overflow=fill;fontSize=15;fontFamily=Helvetica;html=1;rounded=0;shadow=0;comic=0;labelBackgroundColor=none;strokeWidth=1;fillColor=#f8cecc;strokeColor=#b85450;" parent="1" vertex="1">
          <mxGeometry x="624" y="1047" width="384" height="388" as="geometry" />
        </mxCell>
        <mxCell id="node9" value="&lt;p style=&quot;margin: 4px 0px 0px; text-align: center; font-size: 15px;&quot;&gt;&lt;b style=&quot;font-size: 15px;&quot;&gt;Phong&lt;/b&gt;&lt;/p&gt;&lt;hr style=&quot;font-size: 15px;&quot;&gt;&lt;p style=&quot;margin: 0px 0px 0px 4px; line-height: 1.6; font-size: 15px;&quot;&gt;- loaiPhong: LoaiPhong&lt;br style=&quot;border-color: var(--border-color); font-size: 15px;&quot;&gt;- maPhong: long&lt;/p&gt;&lt;p style=&quot;margin: 0px 0px 0px 4px; line-height: 1.6; font-size: 15px;&quot;&gt;- soGiuong: int&lt;br style=&quot;border-color: var(--border-color);&quot;&gt;- trangThaiPhong: boolean&lt;br style=&quot;border-color: var(--border-color); font-size: 15px;&quot;&gt;- tang: Tang&lt;/p&gt;&lt;p style=&quot;margin: 0px 0px 0px 4px; line-height: 1.6; font-size: 15px;&quot;&gt;- giaPhong: double&lt;br style=&quot;border-color: var(--border-color);&quot;&gt;- mangThuCung: boolean&lt;br style=&quot;border-color: var(--border-color);&quot;&gt;- sucChua: int&lt;br style=&quot;border-color: var(--border-color);&quot;&gt;- duocHutThuoc: boolean&lt;br style=&quot;border-color: var(--border-color); font-size: 15px;&quot;&gt;- hinhAnhPhong: List&amp;lt;String&amp;gt;&lt;br style=&quot;border-color: var(--border-color); font-size: 15px;&quot;&gt;- moTaPhong: String&lt;br style=&quot;border-color: var(--border-color); font-size: 15px;&quot;&gt;- tenPhong: String&lt;/p&gt;&lt;hr style=&quot;font-size: 15px;&quot;&gt;&lt;p style=&quot;margin: 0px 0px 0px 4px; line-height: 1.6; font-size: 15px;&quot;&gt;+ Phong(long, String, boolean, List&amp;lt;String&amp;gt;, String, Tang, LoaiPhong, List&amp;lt;PhongThietBi&amp;gt;, KhachSan)&lt;br style=&quot;border-color: var(--border-color); font-size: 15px;&quot;&gt;+ Phong()&lt;br style=&quot;font-size: 15px;&quot;&gt;&lt;/p&gt;&lt;p style=&quot;margin: 0px 0px 0px 4px; line-height: 1.6; font-size: 15px;&quot;&gt;+ Các cặp get,set&lt;/p&gt;" style="verticalAlign=top;align=left;overflow=fill;fontSize=15;fontFamily=Helvetica;html=1;rounded=0;shadow=0;comic=0;labelBackgroundColor=none;strokeWidth=1;fillColor=#f8cecc;strokeColor=#b85450;" parent="1" vertex="1">
          <mxGeometry x="656" y="352" width="236" height="418" as="geometry" />
        </mxCell>
        <mxCell id="node8" value="&lt;p style=&quot;margin: 4px 0px 0px; text-align: center; font-size: 15px;&quot;&gt;&lt;b style=&quot;font-size: 15px;&quot;&gt;TaiKhoan&lt;/b&gt;&lt;/p&gt;&lt;hr style=&quot;font-size: 15px;&quot;&gt;&lt;p style=&quot;margin: 0px 0px 0px 4px; line-height: 1.6; font-size: 15px;&quot;&gt;- vaiTro: VaiTro&lt;br style=&quot;border-color: var(--border-color); font-size: 15px;&quot;&gt;- matKhau: String&lt;br style=&quot;border-color: var(--border-color); font-size: 15px;&quot;&gt;- maTaiKhoan: long&lt;br style=&quot;border-color: var(--border-color); font-size: 15px;&quot;&gt;- tenTaiKhoan: String&lt;/p&gt;&lt;p style=&quot;margin: 0px 0px 0px 4px; line-height: 1.6; font-size: 15px;&quot;&gt;- daKichHoat: boolean&lt;/p&gt;&lt;hr style=&quot;font-size: 15px;&quot;&gt;&lt;p style=&quot;margin: 0px 0px 0px 4px; line-height: 1.6; font-size: 15px;&quot;&gt;+ TaiKhoan(long, String, String, VaiTro)&lt;br style=&quot;border-color: var(--border-color); font-size: 15px;&quot;&gt;+ TaiKhoan()&lt;br style=&quot;font-size: 15px;&quot;&gt;&lt;/p&gt;&lt;p style=&quot;margin: 0px 0px 0px 4px; line-height: 1.6; font-size: 15px;&quot;&gt;+ Các cặp get,set&lt;/p&gt;" style="verticalAlign=top;align=left;overflow=fill;fontSize=15;fontFamily=Helvetica;html=1;rounded=0;shadow=0;comic=0;labelBackgroundColor=none;strokeWidth=1;fillColor=#f8cecc;strokeColor=#b85450;direction=south;" parent="1" vertex="1">
          <mxGeometry x="-148.5" y="577" width="244.5" height="250" as="geometry" />
        </mxCell>
        <mxCell id="node10" value="&lt;p style=&quot;margin: 4px 0px 0px; text-align: center; font-size: 15px;&quot;&gt;&lt;b style=&quot;font-size: 15px;&quot;&gt;Tang&lt;/b&gt;&lt;/p&gt;&lt;hr style=&quot;font-size: 15px;&quot;&gt;&lt;p style=&quot;margin: 0px 0px 0px 4px; line-height: 1.6; font-size: 15px;&quot;&gt;- maTang: int&lt;br style=&quot;border-color: var(--border-color); font-size: 15px;&quot;&gt;- tenTang: String&lt;/p&gt;&lt;hr style=&quot;font-size: 15px;&quot;&gt;&lt;p style=&quot;margin: 0px 0px 0px 4px; line-height: 1.6; font-size: 15px;&quot;&gt;+ Tang(int, String)&lt;br style=&quot;border-color: var(--border-color); font-size: 15px;&quot;&gt;+ Tang()&lt;br style=&quot;font-size: 15px;&quot;&gt;&lt;/p&gt;&lt;p style=&quot;margin: 0px 0px 0px 4px; line-height: 1.6; font-size: 15px;&quot;&gt;+ Các cặp get,set&lt;/p&gt;" style="verticalAlign=top;align=left;overflow=fill;fontSize=15;fontFamily=Helvetica;html=1;rounded=0;shadow=0;comic=0;labelBackgroundColor=none;strokeWidth=1;fillColor=#f8cecc;strokeColor=#b85450;" parent="1" vertex="1">
          <mxGeometry x="1045.5" y="608" width="137" height="174" as="geometry" />
        </mxCell>
        <mxCell id="node11" value="&lt;p style=&quot;margin: 4px 0px 0px; text-align: center; font-size: 15px;&quot;&gt;&lt;b style=&quot;font-size: 15px;&quot;&gt;VaiTro&lt;/b&gt;&lt;/p&gt;&lt;hr style=&quot;font-size: 15px;&quot;&gt;&lt;p style=&quot;margin: 0px 0px 0px 4px; line-height: 1.6; font-size: 15px;&quot;&gt;- maVaiTro: long&lt;br style=&quot;border-color: var(--border-color); font-size: 15px;&quot;&gt;- tenVaiTro: String&lt;/p&gt;&lt;hr style=&quot;font-size: 15px;&quot;&gt;&lt;p style=&quot;margin: 0px 0px 0px 4px; line-height: 1.6; font-size: 15px;&quot;&gt;+ VaiTro(long, String)&lt;br style=&quot;border-color: var(--border-color); font-size: 15px;&quot;&gt;+ VaiTro()&lt;br style=&quot;font-size: 15px;&quot;&gt;&lt;/p&gt;&lt;p style=&quot;margin: 0px 0px 0px 4px; line-height: 1.6; font-size: 15px;&quot;&gt;+ Các cặp get, set&lt;/p&gt;" style="verticalAlign=top;align=left;overflow=fill;fontSize=15;fontFamily=Helvetica;html=1;rounded=0;shadow=0;comic=0;labelBackgroundColor=none;strokeWidth=1;fillColor=#f8cecc;strokeColor=#b85450;" parent="1" vertex="1">
          <mxGeometry x="-144" y="381.5" width="156" height="185.5" as="geometry" />
        </mxCell>
        <mxCell id="NN-GwYv5wRE9xvo7zbAA-5" value="" style="html=1;rounded=1;edgeStyle=orthogonalEdgeStyle;dashed=0;startArrow=diamondThinstartSize=12;endArrow=openThin;endSize=12;strokeColor=#595959;fontSize=15;entryX=1;entryY=0.75;entryDx=0;entryDy=0;exitX=0;exitY=0.25;exitDx=0;exitDy=0;" parent="1" target="node11" edge="1" source="node8">
          <mxGeometry width="50" height="50" relative="1" as="geometry">
            <Array as="points" />
            <mxPoint x="288" y="240" as="sourcePoint" />
            <mxPoint x="71" y="235" as="targetPoint" />
          </mxGeometry>
        </mxCell>
        <mxCell id="NN-GwYv5wRE9xvo7zbAA-6" value="1" style="edgeLabel;resizable=0;html=1;align=left;verticalAlign=top;strokeColor=default;fontSize=15;" parent="NN-GwYv5wRE9xvo7zbAA-5" vertex="1" connectable="0">
          <mxGeometry x="32" y="496" as="geometry" />
        </mxCell>
        <mxCell id="NN-GwYv5wRE9xvo7zbAA-7" value="1" style="edgeLabel;resizable=0;html=1;align=left;verticalAlign=top;strokeColor=default;fontSize=15;" parent="NN-GwYv5wRE9xvo7zbAA-5" vertex="1" connectable="0">
          <mxGeometry x="32" y="544" as="geometry" />
        </mxCell>
        <mxCell id="NN-GwYv5wRE9xvo7zbAA-8" value="vaiTro" style="edgeLabel;resizable=0;html=1;align=left;verticalAlign=top;strokeColor=default;fontSize=15;" parent="NN-GwYv5wRE9xvo7zbAA-5" vertex="1" connectable="0">
          <mxGeometry x="48" y="528" as="geometry" />
        </mxCell>
        <mxCell id="NN-GwYv5wRE9xvo7zbAA-13" value="" style="html=1;rounded=1;edgeStyle=orthogonalEdgeStyle;dashed=0;startArrow=diamondThinstartSize=12;endArrow=openThin;endSize=12;strokeColor=#595959;exitX=-0.003;exitY=0.772;exitDx=0;exitDy=0;entryX=0.539;entryY=0.021;entryDx=0;entryDy=0;exitPerimeter=0;fontSize=15;entryPerimeter=0;" parent="1" source="node4" target="node8" edge="1">
          <mxGeometry width="50" height="50" relative="1" as="geometry">
            <Array as="points">
              <mxPoint x="144" y="766" />
              <mxPoint x="144" y="712" />
            </Array>
            <mxPoint x="301" y="843" as="sourcePoint" />
            <mxPoint x="71" y="783" as="targetPoint" />
          </mxGeometry>
        </mxCell>
        <mxCell id="NN-GwYv5wRE9xvo7zbAA-15" value="1" style="edgeLabel;resizable=0;html=1;align=left;verticalAlign=top;strokeColor=default;fontSize=15;" parent="NN-GwYv5wRE9xvo7zbAA-13" vertex="1" connectable="0">
          <mxGeometry x="96" y="720" as="geometry" />
        </mxCell>
        <mxCell id="NN-GwYv5wRE9xvo7zbAA-16" value="taiKhoan" style="edgeLabel;resizable=0;html=1;align=left;verticalAlign=top;strokeColor=default;fontSize=15;" parent="NN-GwYv5wRE9xvo7zbAA-13" vertex="1" connectable="0">
          <mxGeometry x="112" y="688" as="geometry" />
        </mxCell>
        <mxCell id="NN-GwYv5wRE9xvo7zbAA-19" value="1" style="edgeLabel;html=1;align=center;verticalAlign=middle;resizable=0;points=[];fontSize=15;" parent="NN-GwYv5wRE9xvo7zbAA-13" vertex="1" connectable="0">
          <mxGeometry x="-0.8809" y="-4" relative="1" as="geometry">
            <mxPoint x="-11" y="-8" as="offset" />
          </mxGeometry>
        </mxCell>
        <mxCell id="NN-GwYv5wRE9xvo7zbAA-38" value="" style="html=1;rounded=1;edgeStyle=orthogonalEdgeStyle;dashed=0;startArrow=diamondThinstartSize=12;endArrow=openThin;endSize=12;strokeColor=#595959;exitX=-0.028;exitY=0.16;exitDx=0;exitDy=0;fontSize=15;exitPerimeter=0;entryX=1;entryY=0.5;entryDx=0;entryDy=0;" parent="1" source="node10" edge="1" target="node9">
          <mxGeometry width="50" height="50" relative="1" as="geometry">
            <Array as="points">
              <mxPoint x="992" y="636" />
              <mxPoint x="992" y="560" />
              <mxPoint x="892" y="560" />
            </Array>
            <mxPoint x="810" y="926" as="sourcePoint" />
            <mxPoint x="659" y="528" as="targetPoint" />
          </mxGeometry>
        </mxCell>
        <mxCell id="NN-GwYv5wRE9xvo7zbAA-39" value="1" style="edgeLabel;resizable=0;html=1;align=left;verticalAlign=top;strokeColor=default;fontSize=15;" parent="NN-GwYv5wRE9xvo7zbAA-38" vertex="1" connectable="0">
          <mxGeometry x="1024" y="608" as="geometry" />
        </mxCell>
        <mxCell id="NN-GwYv5wRE9xvo7zbAA-40" value="n" style="edgeLabel;resizable=0;html=1;align=left;verticalAlign=top;strokeColor=default;fontSize=15;" parent="NN-GwYv5wRE9xvo7zbAA-38" vertex="1" connectable="0">
          <mxGeometry x="896" y="528" as="geometry" />
        </mxCell>
        <mxCell id="NN-GwYv5wRE9xvo7zbAA-41" value="tang" style="edgeLabel;resizable=0;html=1;align=left;verticalAlign=top;strokeColor=default;fontSize=15;" parent="NN-GwYv5wRE9xvo7zbAA-38" vertex="1" connectable="0">
          <mxGeometry x="944" y="528" as="geometry" />
        </mxCell>
        <mxCell id="NN-GwYv5wRE9xvo7zbAA-43" value="" style="html=1;rounded=1;edgeStyle=orthogonalEdgeStyle;dashed=0;startArrow=diamondThinstartSize=12;endArrow=openThin;endSize=12;strokeColor=#595959;exitX=1.017;exitY=0.172;exitDx=0;exitDy=0;exitPerimeter=0;fontSize=15;" parent="1" source="node9" target="node14" edge="1">
          <mxGeometry width="50" height="50" relative="1" as="geometry">
            <Array as="points">
              <mxPoint x="960" y="424" />
              <mxPoint x="960" y="424" />
            </Array>
            <mxPoint x="810" y="926" as="sourcePoint" />
            <mxPoint x="710" y="712" as="targetPoint" />
          </mxGeometry>
        </mxCell>
        <mxCell id="NN-GwYv5wRE9xvo7zbAA-44" value="n" style="edgeLabel;resizable=0;html=1;align=left;verticalAlign=top;strokeColor=default;fontSize=15;" parent="NN-GwYv5wRE9xvo7zbAA-43" vertex="1" connectable="0">
          <mxGeometry x="896" y="432" as="geometry" />
        </mxCell>
        <mxCell id="NN-GwYv5wRE9xvo7zbAA-45" value="1" style="edgeLabel;resizable=0;html=1;align=left;verticalAlign=top;strokeColor=default;fontSize=15;" parent="NN-GwYv5wRE9xvo7zbAA-43" vertex="1" connectable="0">
          <mxGeometry x="992" y="432" as="geometry" />
        </mxCell>
        <mxCell id="NN-GwYv5wRE9xvo7zbAA-46" value="loaiPhong" style="edgeLabel;resizable=0;html=1;align=left;verticalAlign=top;strokeColor=default;fontSize=15;" parent="NN-GwYv5wRE9xvo7zbAA-43" vertex="1" connectable="0">
          <mxGeometry x="912" y="384" as="geometry" />
        </mxCell>
        <mxCell id="NN-GwYv5wRE9xvo7zbAA-64" value="" style="html=1;rounded=1;edgeStyle=orthogonalEdgeStyle;dashed=0;startArrow=diamondThinstartSize=12;endArrow=openThin;endSize=12;strokeColor=#595959;entryX=-0.025;entryY=0.29;entryDx=0;entryDy=0;fontSize=15;exitX=0.808;exitY=0.003;exitDx=0;exitDy=0;exitPerimeter=0;entryPerimeter=0;" parent="1" source="node3" target="node1" edge="1">
          <mxGeometry width="50" height="50" relative="1" as="geometry">
            <Array as="points">
              <mxPoint x="934" y="1008" />
              <mxPoint x="953" y="1008" />
              <mxPoint x="953" y="892" />
            </Array>
            <mxPoint x="1008" y="960" as="sourcePoint" />
            <mxPoint x="800" y="786" as="targetPoint" />
          </mxGeometry>
        </mxCell>
        <mxCell id="NN-GwYv5wRE9xvo7zbAA-67" value="" style="edgeLabel;resizable=0;html=1;align=left;verticalAlign=top;strokeColor=default;fontSize=15;" parent="NN-GwYv5wRE9xvo7zbAA-64" vertex="1" connectable="0">
          <mxGeometry x="784" y="800" as="geometry" />
        </mxCell>
        <mxCell id="NN-GwYv5wRE9xvo7zbAA-68" value="1" style="edgeLabel;html=1;align=center;verticalAlign=middle;resizable=0;points=[];fontSize=15;" parent="NN-GwYv5wRE9xvo7zbAA-64" vertex="1" connectable="0">
          <mxGeometry x="0.8903" y="-1" relative="1" as="geometry">
            <mxPoint x="-9" y="15" as="offset" />
          </mxGeometry>
        </mxCell>
        <mxCell id="NN-GwYv5wRE9xvo7zbAA-69" value="n" style="edgeLabel;html=1;align=center;verticalAlign=middle;resizable=0;points=[];fontSize=15;" parent="NN-GwYv5wRE9xvo7zbAA-64" vertex="1" connectable="0">
          <mxGeometry x="-0.8819" y="-2" relative="1" as="geometry">
            <mxPoint x="-18" y="-14" as="offset" />
          </mxGeometry>
        </mxCell>
        <mxCell id="NN-GwYv5wRE9xvo7zbAA-70" value="khachHang" style="edgeLabel;html=1;align=center;verticalAlign=middle;resizable=0;points=[];fontSize=15;" parent="NN-GwYv5wRE9xvo7zbAA-64" vertex="1" connectable="0">
          <mxGeometry x="0.0549" relative="1" as="geometry">
            <mxPoint x="23" y="32" as="offset" />
          </mxGeometry>
        </mxCell>
        <mxCell id="NN-GwYv5wRE9xvo7zbAA-78" value="" style="html=1;rounded=1;edgeStyle=orthogonalEdgeStyle;dashed=0;startArrow=diamondThinstartSize=12;endArrow=openThin;endSize=12;strokeColor=#595959;fontSize=15;" parent="1" edge="1">
          <mxGeometry width="50" height="50" relative="1" as="geometry">
            <Array as="points">
              <mxPoint x="320" y="929" />
            </Array>
            <mxPoint x="320" y="944" as="sourcePoint" />
            <mxPoint x="320" y="864" as="targetPoint" />
          </mxGeometry>
        </mxCell>
        <mxCell id="NN-GwYv5wRE9xvo7zbAA-82" value="1" style="edgeLabel;html=1;align=center;verticalAlign=middle;resizable=0;points=[];fontSize=15;" parent="NN-GwYv5wRE9xvo7zbAA-78" vertex="1" connectable="0">
          <mxGeometry x="0.8903" y="-1" relative="1" as="geometry">
            <mxPoint x="-25" as="offset" />
          </mxGeometry>
        </mxCell>
        <mxCell id="NN-GwYv5wRE9xvo7zbAA-83" value="n" style="edgeLabel;html=1;align=center;verticalAlign=middle;resizable=0;points=[];fontSize=15;" parent="NN-GwYv5wRE9xvo7zbAA-78" vertex="1" connectable="0">
          <mxGeometry x="-0.8819" y="-2" relative="1" as="geometry">
            <mxPoint x="14" y="-16" as="offset" />
          </mxGeometry>
        </mxCell>
        <mxCell id="NN-GwYv5wRE9xvo7zbAA-84" value="nhanVien" style="edgeLabel;html=1;align=center;verticalAlign=middle;resizable=0;points=[];fontSize=15;" parent="NN-GwYv5wRE9xvo7zbAA-78" vertex="1" connectable="0">
          <mxGeometry x="0.0549" relative="1" as="geometry">
            <mxPoint x="-32" as="offset" />
          </mxGeometry>
        </mxCell>
        <mxCell id="9kKyNftHh3VxOhHSyTWr-8" value="&lt;p style=&quot;margin: 4px 0px 0px; text-align: center; font-size: 15px;&quot;&gt;&lt;b style=&quot;font-size: 15px;&quot;&gt;ChiTietHoaDon&lt;/b&gt;&lt;/p&gt;&lt;hr style=&quot;font-size: 15px;&quot;&gt;&lt;p style=&quot;margin: 0px 0px 0px 4px; line-height: 1.6; font-size: 15px;&quot;&gt;- hoaDon: HoaDon&lt;br style=&quot;border-color: var(--border-color); font-size: 15px;&quot;&gt;- phong: Phong&lt;br&gt;&lt;/p&gt;&lt;hr style=&quot;font-size: 15px;&quot;&gt;&lt;p style=&quot;margin: 0px 0px 0px 4px; line-height: 1.6; font-size: 15px;&quot;&gt;+ ChiTietHoaDon(HoaDon, Phong)&lt;br style=&quot;border-color: var(--border-color); font-size: 15px;&quot;&gt;+ ChiTietHoaDon()&lt;br style=&quot;font-size: 15px;&quot;&gt;&lt;/p&gt;&lt;p style=&quot;margin: 0px 0px 0px 4px; line-height: 1.6; font-size: 15px;&quot;&gt;+ Các cặp get,set&lt;/p&gt;" style="verticalAlign=top;align=left;overflow=fill;fontSize=15;fontFamily=Helvetica;html=1;rounded=0;shadow=0;comic=0;labelBackgroundColor=none;strokeWidth=1;fillColor=#f8cecc;strokeColor=#b85450;" parent="1" vertex="1">
          <mxGeometry x="416" y="736" width="220" height="176" as="geometry" />
        </mxCell>
        <mxCell id="9kKyNftHh3VxOhHSyTWr-11" value="" style="html=1;rounded=1;edgeStyle=orthogonalEdgeStyle;dashed=0;startArrow=diamondThinstartSize=12;endArrow=openThin;endSize=12;strokeColor=#595959;fontSize=15;exitX=0.75;exitY=1;exitDx=0;exitDy=0;entryX=0.988;entryY=0.866;entryDx=0;entryDy=0;entryPerimeter=0;" parent="1" source="node2" target="node1" edge="1">
          <mxGeometry width="50" height="50" relative="1" as="geometry">
            <Array as="points">
              <mxPoint x="384" y="1360" />
              <mxPoint x="384" y="1456" />
              <mxPoint x="1232" y="1456" />
              <mxPoint x="1232" y="943" />
            </Array>
            <mxPoint x="336" y="960" as="sourcePoint" />
            <mxPoint x="1184" y="1040" as="targetPoint" />
          </mxGeometry>
        </mxCell>
        <mxCell id="9kKyNftHh3VxOhHSyTWr-15" value="1" style="edgeLabel;html=1;align=center;verticalAlign=middle;resizable=0;points=[];fontSize=15;" parent="9kKyNftHh3VxOhHSyTWr-11" vertex="1" connectable="0">
          <mxGeometry x="0.8903" y="-1" relative="1" as="geometry">
            <mxPoint x="-33" y="-52" as="offset" />
          </mxGeometry>
        </mxCell>
        <mxCell id="9kKyNftHh3VxOhHSyTWr-16" value="n" style="edgeLabel;html=1;align=center;verticalAlign=middle;resizable=0;points=[];fontSize=15;" parent="9kKyNftHh3VxOhHSyTWr-11" vertex="1" connectable="0">
          <mxGeometry x="-0.8819" y="-2" relative="1" as="geometry">
            <mxPoint x="-14" y="-71" as="offset" />
          </mxGeometry>
        </mxCell>
        <mxCell id="9kKyNftHh3VxOhHSyTWr-17" value="khachHang" style="edgeLabel;html=1;align=center;verticalAlign=middle;resizable=0;points=[];fontSize=15;" parent="9kKyNftHh3VxOhHSyTWr-11" vertex="1" connectable="0">
          <mxGeometry x="0.0549" relative="1" as="geometry">
            <mxPoint x="-8" y="-16" as="offset" />
          </mxGeometry>
        </mxCell>
        <mxCell id="P56iyV5pLYhUlFNKR0Oy-2" value="&lt;p style=&quot;margin: 4px 0px 0px; text-align: center; font-size: 15px;&quot;&gt;&lt;i style=&quot;font-size: 15px;&quot;&gt;&amp;lt;&amp;lt;Enum&amp;gt;&amp;gt;&lt;/i&gt;&lt;br style=&quot;font-size: 15px;&quot;&gt;&lt;b style=&quot;font-size: 15px;&quot;&gt;TrangThaiDatPhong&lt;/b&gt;&lt;/p&gt;&lt;hr style=&quot;font-size: 15px;&quot;&gt;&lt;p style=&quot;margin: 0px 0px 0px 4px; font-size: 15px;&quot;&gt;- MOI_DAT&lt;br style=&quot;font-size: 15px;&quot;&gt;- HOAN_TAT&lt;/p&gt;&lt;p style=&quot;margin: 0px 0px 0px 4px; font-size: 15px;&quot;&gt;- HUY&lt;/p&gt;&lt;p style=&quot;margin: 0px 0px 0px 4px; font-size: 15px;&quot;&gt;- THAY_DOI&lt;/p&gt;" style="verticalAlign=top;align=left;overflow=fill;fontSize=15;fontFamily=Helvetica;html=1;whiteSpace=wrap;fillColor=#f8cecc;strokeColor=#b85450;" parent="1" vertex="1">
          <mxGeometry x="1028" y="1200" width="190" height="140" as="geometry" />
        </mxCell>
        <mxCell id="P56iyV5pLYhUlFNKR0Oy-3" value="" style="html=1;rounded=1;edgeStyle=orthogonalEdgeStyle;dashed=0;startArrow=diamondThinstartSize=12;endArrow=openThin;endSize=12;strokeColor=#595959;fontSize=15;entryX=0.547;entryY=0.014;entryDx=0;entryDy=0;entryPerimeter=0;exitX=0.991;exitY=0.312;exitDx=0;exitDy=0;exitPerimeter=0;" parent="1" source="node3" target="P56iyV5pLYhUlFNKR0Oy-2" edge="1">
          <mxGeometry width="50" height="50" relative="1" as="geometry">
            <Array as="points">
              <mxPoint x="1132" y="1168" />
            </Array>
            <mxPoint x="1008" y="1024" as="sourcePoint" />
            <mxPoint x="336" y="880" as="targetPoint" />
          </mxGeometry>
        </mxCell>
        <mxCell id="P56iyV5pLYhUlFNKR0Oy-6" value="1" style="edgeLabel;html=1;align=center;verticalAlign=middle;resizable=0;points=[];fontSize=15;" parent="P56iyV5pLYhUlFNKR0Oy-3" vertex="1" connectable="0">
          <mxGeometry x="0.8903" y="-1" relative="1" as="geometry">
            <mxPoint x="21" y="-10" as="offset" />
          </mxGeometry>
        </mxCell>
        <mxCell id="P56iyV5pLYhUlFNKR0Oy-7" value="n" style="edgeLabel;html=1;align=center;verticalAlign=middle;resizable=0;points=[];fontSize=15;" parent="P56iyV5pLYhUlFNKR0Oy-3" vertex="1" connectable="0">
          <mxGeometry x="-0.8819" y="-2" relative="1" as="geometry">
            <mxPoint x="10" y="-23" as="offset" />
          </mxGeometry>
        </mxCell>
        <mxCell id="P56iyV5pLYhUlFNKR0Oy-8" value="trangThaiDatPhong" style="edgeLabel;html=1;align=center;verticalAlign=middle;resizable=0;points=[];fontSize=15;" parent="P56iyV5pLYhUlFNKR0Oy-3" vertex="1" connectable="0">
          <mxGeometry x="0.0549" relative="1" as="geometry">
            <mxPoint x="19" y="-16" as="offset" />
          </mxGeometry>
        </mxCell>
        <mxCell id="Jl_4TxCs7rf2nlPPhNfp-1" value="" style="html=1;rounded=1;edgeStyle=orthogonalEdgeStyle;dashed=0;startArrow=diamondThinstartSize=12;endArrow=openThin;endSize=12;strokeColor=#595959;fontSize=15;exitX=1;exitY=0.395;exitDx=0;exitDy=0;exitPerimeter=0;" parent="1" source="node2" edge="1">
          <mxGeometry width="50" height="50" relative="1" as="geometry">
            <Array as="points">
              <mxPoint x="458" y="1102" />
              <mxPoint x="544" y="1102" />
              <mxPoint x="544" y="915" />
            </Array>
            <mxPoint x="336" y="960" as="sourcePoint" />
            <mxPoint x="544" y="915" as="targetPoint" />
          </mxGeometry>
        </mxCell>
        <mxCell id="Jl_4TxCs7rf2nlPPhNfp-4" value="1" style="edgeLabel;html=1;align=center;verticalAlign=middle;resizable=0;points=[];fontSize=15;" parent="Jl_4TxCs7rf2nlPPhNfp-1" vertex="1" connectable="0">
          <mxGeometry x="0.8903" y="-1" relative="1" as="geometry">
            <mxPoint x="-81" y="158" as="offset" />
          </mxGeometry>
        </mxCell>
        <mxCell id="Jl_4TxCs7rf2nlPPhNfp-5" value="n" style="edgeLabel;html=1;align=center;verticalAlign=middle;resizable=0;points=[];fontSize=15;" parent="Jl_4TxCs7rf2nlPPhNfp-1" vertex="1" connectable="0">
          <mxGeometry x="-0.8819" y="-2" relative="1" as="geometry">
            <mxPoint x="92" y="-176" as="offset" />
          </mxGeometry>
        </mxCell>
        <mxCell id="Jl_4TxCs7rf2nlPPhNfp-6" value="dsChiTietHoaDon" style="edgeLabel;html=1;align=center;verticalAlign=middle;resizable=0;points=[];fontSize=15;" parent="Jl_4TxCs7rf2nlPPhNfp-1" vertex="1" connectable="0">
          <mxGeometry x="0.0549" relative="1" as="geometry">
            <mxPoint x="-8" y="-37" as="offset" />
          </mxGeometry>
        </mxCell>
        <mxCell id="Jl_4TxCs7rf2nlPPhNfp-7" value="" style="html=1;rounded=1;edgeStyle=orthogonalEdgeStyle;dashed=0;startArrow=diamondThinstartSize=12;endArrow=openThin;endSize=12;strokeColor=#595959;fontSize=15;exitX=0.286;exitY=0.028;exitDx=0;exitDy=0;exitPerimeter=0;" parent="1" source="9kKyNftHh3VxOhHSyTWr-8" edge="1">
          <mxGeometry width="50" height="50" relative="1" as="geometry">
            <Array as="points">
              <mxPoint x="479" y="722" />
              <mxPoint x="480" y="722" />
              <mxPoint x="480" y="640" />
            </Array>
            <mxPoint x="478.03999999999996" y="721.9359999999999" as="sourcePoint" />
            <mxPoint x="656" y="640" as="targetPoint" />
          </mxGeometry>
        </mxCell>
        <mxCell id="Jl_4TxCs7rf2nlPPhNfp-8" value="" style="edgeLabel;resizable=0;html=1;align=left;verticalAlign=top;strokeColor=default;fontSize=15;" parent="Jl_4TxCs7rf2nlPPhNfp-7" vertex="1" connectable="0">
          <mxGeometry x="768" y="827" as="geometry" />
        </mxCell>
        <mxCell id="Jl_4TxCs7rf2nlPPhNfp-10" value="1" style="edgeLabel;html=1;align=center;verticalAlign=middle;resizable=0;points=[];fontSize=15;" parent="Jl_4TxCs7rf2nlPPhNfp-7" vertex="1" connectable="0">
          <mxGeometry x="0.8903" y="-1" relative="1" as="geometry">
            <mxPoint x="-25" as="offset" />
          </mxGeometry>
        </mxCell>
        <mxCell id="Jl_4TxCs7rf2nlPPhNfp-11" value="n" style="edgeLabel;html=1;align=center;verticalAlign=middle;resizable=0;points=[];fontSize=15;" parent="Jl_4TxCs7rf2nlPPhNfp-7" vertex="1" connectable="0">
          <mxGeometry x="-0.8819" y="-2" relative="1" as="geometry">
            <mxPoint x="-17" y="-5" as="offset" />
          </mxGeometry>
        </mxCell>
        <mxCell id="Jl_4TxCs7rf2nlPPhNfp-12" value="phong" style="edgeLabel;html=1;align=center;verticalAlign=middle;resizable=0;points=[];fontSize=15;" parent="Jl_4TxCs7rf2nlPPhNfp-7" vertex="1" connectable="0">
          <mxGeometry x="0.0549" relative="1" as="geometry">
            <mxPoint x="-80" as="offset" />
          </mxGeometry>
        </mxCell>
        <mxCell id="Jl_4TxCs7rf2nlPPhNfp-13" value="" style="html=1;rounded=1;edgeStyle=orthogonalEdgeStyle;dashed=0;startArrow=diamondThinstartSize=12;endArrow=openThin;endSize=12;strokeColor=#595959;fontSize=15;entryX=0.007;entryY=0.786;entryDx=0;entryDy=0;entryPerimeter=0;" parent="1" target="node3" edge="1">
          <mxGeometry width="50" height="50" relative="1" as="geometry">
            <Array as="points">
              <mxPoint x="528" y="1158" />
              <mxPoint x="528" y="1352" />
            </Array>
            <mxPoint x="458" y="1158" as="sourcePoint" />
            <mxPoint x="368" y="912" as="targetPoint" />
          </mxGeometry>
        </mxCell>
        <mxCell id="Jl_4TxCs7rf2nlPPhNfp-14" value="" style="edgeLabel;resizable=0;html=1;align=left;verticalAlign=top;strokeColor=default;fontSize=15;" parent="Jl_4TxCs7rf2nlPPhNfp-13" vertex="1" connectable="0">
          <mxGeometry x="768" y="827" as="geometry" />
        </mxCell>
        <mxCell id="Jl_4TxCs7rf2nlPPhNfp-16" value="1" style="edgeLabel;html=1;align=center;verticalAlign=middle;resizable=0;points=[];fontSize=15;" parent="Jl_4TxCs7rf2nlPPhNfp-13" vertex="1" connectable="0">
          <mxGeometry x="0.8903" y="-1" relative="1" as="geometry">
            <mxPoint x="-25" as="offset" />
          </mxGeometry>
        </mxCell>
        <mxCell id="Jl_4TxCs7rf2nlPPhNfp-18" value="phieuDatPhong" style="edgeLabel;html=1;align=center;verticalAlign=middle;resizable=0;points=[];fontSize=15;" parent="Jl_4TxCs7rf2nlPPhNfp-13" vertex="1" connectable="0">
          <mxGeometry x="0.0549" relative="1" as="geometry">
            <mxPoint x="16" y="33" as="offset" />
          </mxGeometry>
        </mxCell>
        <mxCell id="Jl_4TxCs7rf2nlPPhNfp-19" value="1" style="edgeLabel;html=1;align=center;verticalAlign=middle;resizable=0;points=[];fontSize=15;" parent="1" vertex="1" connectable="0">
          <mxGeometry x="699.0001193684498" y="1174.9696987990103" as="geometry">
            <mxPoint x="-220" y="-28" as="offset" />
          </mxGeometry>
        </mxCell>
        <mxCell id="Jl_4TxCs7rf2nlPPhNfp-20" value="" style="html=1;rounded=1;edgeStyle=orthogonalEdgeStyle;dashed=0;startArrow=diamondThinstartSize=12;endArrow=openThin;endSize=12;strokeColor=#595959;fontSize=15;exitX=0.994;exitY=0.947;exitDx=0;exitDy=0;exitPerimeter=0;entryX=0.136;entryY=0.997;entryDx=0;entryDy=0;entryPerimeter=0;" parent="1" source="node12" edge="1" target="node2">
          <mxGeometry width="50" height="50" relative="1" as="geometry">
            <Array as="points">
              <mxPoint x="208" y="1541" />
              <mxPoint x="208" y="1456" />
              <mxPoint x="209" y="1456" />
            </Array>
            <mxPoint x="474" y="1124" as="sourcePoint" />
            <mxPoint x="176" y="1344" as="targetPoint" />
          </mxGeometry>
        </mxCell>
        <mxCell id="Jl_4TxCs7rf2nlPPhNfp-24" value="n" style="edgeLabel;html=1;align=center;verticalAlign=middle;resizable=0;points=[];fontSize=15;" parent="Jl_4TxCs7rf2nlPPhNfp-20" vertex="1" connectable="0">
          <mxGeometry x="-0.8819" y="-2" relative="1" as="geometry">
            <mxPoint x="-8" y="1" as="offset" />
          </mxGeometry>
        </mxCell>
        <mxCell id="Jl_4TxCs7rf2nlPPhNfp-25" value="dsChiTietDichVu" style="edgeLabel;html=1;align=center;verticalAlign=middle;resizable=0;points=[];fontSize=15;" parent="Jl_4TxCs7rf2nlPPhNfp-20" vertex="1" connectable="0">
          <mxGeometry x="0.0549" relative="1" as="geometry">
            <mxPoint x="-16" y="-32" as="offset" />
          </mxGeometry>
        </mxCell>
        <mxCell id="Jl_4TxCs7rf2nlPPhNfp-26" value="1" style="edgeLabel;html=1;align=center;verticalAlign=middle;resizable=0;points=[];fontSize=15;" parent="1" vertex="1" connectable="0">
          <mxGeometry x="559.9978090364272" y="1174.9701451577625" as="geometry">
            <mxPoint x="-338" y="200" as="offset" />
          </mxGeometry>
        </mxCell>
        <mxCell id="Jl_4TxCs7rf2nlPPhNfp-28" value="" style="html=1;rounded=1;edgeStyle=orthogonalEdgeStyle;dashed=0;startArrow=diamondThinstartSize=12;endArrow=openThin;endSize=12;strokeColor=#595959;fontSize=15;exitX=1.023;exitY=0.193;exitDx=0;exitDy=0;exitPerimeter=0;entryX=0.991;entryY=0.837;entryDx=0;entryDy=0;entryPerimeter=0;" parent="1" edge="1" target="node13" source="node12">
          <mxGeometry width="50" height="50" relative="1" as="geometry">
            <Array as="points">
              <mxPoint x="144" y="1359" />
              <mxPoint x="144" y="1258" />
            </Array>
            <mxPoint x="16" y="1088" as="sourcePoint" />
            <mxPoint x="112" y="1264" as="targetPoint" />
          </mxGeometry>
        </mxCell>
        <mxCell id="Jl_4TxCs7rf2nlPPhNfp-31" value="1" style="edgeLabel;html=1;align=center;verticalAlign=middle;resizable=0;points=[];fontSize=15;" parent="Jl_4TxCs7rf2nlPPhNfp-28" vertex="1" connectable="0">
          <mxGeometry x="0.8903" y="-1" relative="1" as="geometry">
            <mxPoint x="8" y="-16" as="offset" />
          </mxGeometry>
        </mxCell>
        <mxCell id="Jl_4TxCs7rf2nlPPhNfp-32" value="n" style="edgeLabel;html=1;align=center;verticalAlign=middle;resizable=0;points=[];fontSize=15;" parent="Jl_4TxCs7rf2nlPPhNfp-28" vertex="1" connectable="0">
          <mxGeometry x="-0.8819" y="-2" relative="1" as="geometry">
            <mxPoint x="14" y="-16" as="offset" />
          </mxGeometry>
        </mxCell>
        <mxCell id="Jl_4TxCs7rf2nlPPhNfp-33" value="dichVu" style="edgeLabel;html=1;align=center;verticalAlign=middle;resizable=0;points=[];fontSize=15;" parent="Jl_4TxCs7rf2nlPPhNfp-28" vertex="1" connectable="0">
          <mxGeometry x="0.0549" relative="1" as="geometry">
            <mxPoint x="-16" y="-8" as="offset" />
          </mxGeometry>
        </mxCell>
        <mxCell id="WoCW8yJ4jiPQpbNvsQIe-2" value="&lt;p style=&quot;margin: 4px 0px 0px; text-align: center; font-size: 15px;&quot;&gt;&lt;b style=&quot;font-size: 15px;&quot;&gt;ChiTietPhieuDatPhong&lt;/b&gt;&lt;/p&gt;&lt;hr style=&quot;font-size: 15px;&quot;&gt;&lt;p style=&quot;margin: 0px 0px 0px 4px; line-height: 1.6; font-size: 15px;&quot;&gt;- phieuDatPhong: PhieuDatPhong&lt;br style=&quot;border-color: var(--border-color); font-size: 15px;&quot;&gt;- phong: Phong&lt;br&gt;&lt;/p&gt;&lt;hr style=&quot;font-size: 15px;&quot;&gt;&lt;p style=&quot;margin: 0px 0px 0px 4px; line-height: 1.6; font-size: 15px;&quot;&gt;+ ChiTietPhieuDatPhong(HoaDon, Phong)&lt;br style=&quot;border-color: var(--border-color); font-size: 15px;&quot;&gt;+ ChiTietPhieuDatPhong()&lt;br style=&quot;font-size: 15px;&quot;&gt;&lt;/p&gt;&lt;p style=&quot;margin: 0px 0px 0px 4px; line-height: 1.6; font-size: 15px;&quot;&gt;+ Các cặp get,set&lt;/p&gt;" style="verticalAlign=top;align=left;overflow=fill;fontSize=15;fontFamily=Helvetica;html=1;rounded=0;shadow=0;comic=0;labelBackgroundColor=none;strokeWidth=1;fillColor=#f8cecc;strokeColor=#b85450;" parent="1" vertex="1">
          <mxGeometry x="699" y="816" width="229" height="176" as="geometry" />
        </mxCell>
        <mxCell id="WoCW8yJ4jiPQpbNvsQIe-3" value="" style="html=1;rounded=1;edgeStyle=orthogonalEdgeStyle;dashed=0;startArrow=diamondThinstartSize=12;endArrow=openThin;endSize=12;strokeColor=#595959;fontSize=15;exitX=0.128;exitY=0.005;exitDx=0;exitDy=0;exitPerimeter=0;entryX=0.023;entryY=0.659;entryDx=0;entryDy=0;entryPerimeter=0;" parent="1" source="node3" target="WoCW8yJ4jiPQpbNvsQIe-2" edge="1">
          <mxGeometry width="50" height="50" relative="1" as="geometry">
            <Array as="points">
              <mxPoint x="640" y="1049" />
              <mxPoint x="640" y="932" />
            </Array>
            <mxPoint x="474" y="1124" as="sourcePoint" />
            <mxPoint x="560" y="931" as="targetPoint" />
          </mxGeometry>
        </mxCell>
        <mxCell id="WoCW8yJ4jiPQpbNvsQIe-4" value="1" style="edgeLabel;html=1;align=center;verticalAlign=middle;resizable=0;points=[];fontSize=15;" parent="WoCW8yJ4jiPQpbNvsQIe-3" vertex="1" connectable="0">
          <mxGeometry x="0.8903" y="-1" relative="1" as="geometry">
            <mxPoint x="-36" y="107" as="offset" />
          </mxGeometry>
        </mxCell>
        <mxCell id="WoCW8yJ4jiPQpbNvsQIe-5" value="n" style="edgeLabel;html=1;align=center;verticalAlign=middle;resizable=0;points=[];fontSize=15;" parent="WoCW8yJ4jiPQpbNvsQIe-3" vertex="1" connectable="0">
          <mxGeometry x="-0.8819" y="-2" relative="1" as="geometry">
            <mxPoint x="12" y="-135" as="offset" />
          </mxGeometry>
        </mxCell>
        <mxCell id="WoCW8yJ4jiPQpbNvsQIe-6" value="dsChiTietPhieuDatPhong" style="edgeLabel;html=1;align=center;verticalAlign=middle;resizable=0;points=[];fontSize=15;" parent="WoCW8yJ4jiPQpbNvsQIe-3" vertex="1" connectable="0">
          <mxGeometry x="0.0549" relative="1" as="geometry">
            <mxPoint x="64" y="39" as="offset" />
          </mxGeometry>
        </mxCell>
        <mxCell id="WoCW8yJ4jiPQpbNvsQIe-8" value="" style="html=1;rounded=1;edgeStyle=orthogonalEdgeStyle;dashed=0;startArrow=diamondThinstartSize=12;endArrow=openThin;endSize=12;strokeColor=#595959;fontSize=15;exitX=1;exitY=0;exitDx=0;exitDy=0;entryX=1.008;entryY=0.659;entryDx=0;entryDy=0;entryPerimeter=0;" parent="1" source="WoCW8yJ4jiPQpbNvsQIe-2" target="node9" edge="1">
          <mxGeometry width="50" height="50" relative="1" as="geometry">
            <Array as="points">
              <mxPoint x="919" y="644" />
            </Array>
            <mxPoint x="490" y="1140" as="sourcePoint" />
            <mxPoint x="576" y="947" as="targetPoint" />
          </mxGeometry>
        </mxCell>
        <mxCell id="WoCW8yJ4jiPQpbNvsQIe-9" value="1" style="edgeLabel;html=1;align=center;verticalAlign=middle;resizable=0;points=[];fontSize=15;" parent="WoCW8yJ4jiPQpbNvsQIe-8" vertex="1" connectable="0">
          <mxGeometry x="0.8903" y="-1" relative="1" as="geometry">
            <mxPoint x="7" y="-19" as="offset" />
          </mxGeometry>
        </mxCell>
        <mxCell id="WoCW8yJ4jiPQpbNvsQIe-10" value="n" style="edgeLabel;html=1;align=center;verticalAlign=middle;resizable=0;points=[];fontSize=15;" parent="WoCW8yJ4jiPQpbNvsQIe-8" vertex="1" connectable="0">
          <mxGeometry x="-0.8819" y="-2" relative="1" as="geometry">
            <mxPoint x="-9" y="-13" as="offset" />
          </mxGeometry>
        </mxCell>
        <mxCell id="WoCW8yJ4jiPQpbNvsQIe-11" value="phong" style="edgeLabel;html=1;align=center;verticalAlign=middle;resizable=0;points=[];fontSize=15;" parent="WoCW8yJ4jiPQpbNvsQIe-8" vertex="1" connectable="0">
          <mxGeometry x="0.0549" relative="1" as="geometry">
            <mxPoint x="25" y="24" as="offset" />
          </mxGeometry>
        </mxCell>
        <mxCell id="BzU4H87MfPjDFtRIohWu-1" value="&lt;p style=&quot;margin: 4px 0px 0px; text-align: center; font-size: 15px;&quot;&gt;&lt;b&gt;LoaiDichVu&lt;/b&gt;&lt;/p&gt;&lt;hr style=&quot;font-size: 15px;&quot;&gt;&lt;p style=&quot;margin: 0px 0px 0px 4px; line-height: 1.6; font-size: 15px;&quot;&gt;- maLoaiDichVu: long&lt;br style=&quot;border-color: var(--border-color); font-size: 15px;&quot;&gt;- tenLoaiDichVu: String&lt;/p&gt;&lt;p style=&quot;margin: 0px 0px 0px 4px; line-height: 1.6; font-size: 15px;&quot;&gt;-&amp;nbsp;donViLoaiDichVu: String&lt;/p&gt;&lt;hr style=&quot;font-size: 15px;&quot;&gt;&lt;p style=&quot;margin: 0px 0px 0px 4px; line-height: 1.6; font-size: 15px;&quot;&gt;+ LoaiDichVu(long, String, String)&lt;br style=&quot;border-color: var(--border-color); font-size: 15px;&quot;&gt;+ LoaiDichVu()&lt;br style=&quot;font-size: 15px;&quot;&gt;&lt;/p&gt;&lt;p style=&quot;margin: 0px 0px 0px 4px; line-height: 1.6; font-size: 15px;&quot;&gt;+ Các cặp get,set&lt;/p&gt;" style="verticalAlign=top;align=left;overflow=fill;fontSize=15;fontFamily=Helvetica;html=1;rounded=0;shadow=0;comic=0;labelBackgroundColor=none;strokeWidth=1;fillColor=#f8cecc;strokeColor=#b85450;" parent="1" vertex="1">
          <mxGeometry x="-96" y="841" width="176" height="206" as="geometry" />
        </mxCell>
        <mxCell id="BzU4H87MfPjDFtRIohWu-2" value="" style="html=1;rounded=1;edgeStyle=orthogonalEdgeStyle;dashed=0;startArrow=diamondThinstartSize=12;endArrow=openThin;endSize=12;strokeColor=#595959;fontSize=15;exitX=1;exitY=0.25;exitDx=0;exitDy=0;entryX=1.018;entryY=0.796;entryDx=0;entryDy=0;entryPerimeter=0;" parent="1" edge="1" target="BzU4H87MfPjDFtRIohWu-1" source="node13">
          <mxGeometry width="50" height="50" relative="1" as="geometry">
            <Array as="points">
              <mxPoint x="144" y="1114" />
              <mxPoint x="144" y="1005" />
            </Array>
            <mxPoint x="32" y="768" as="sourcePoint" />
            <mxPoint x="32" y="688" as="targetPoint" />
          </mxGeometry>
        </mxCell>
        <mxCell id="BzU4H87MfPjDFtRIohWu-3" value="1" style="edgeLabel;html=1;align=center;verticalAlign=middle;resizable=0;points=[];fontSize=15;" parent="BzU4H87MfPjDFtRIohWu-2" vertex="1" connectable="0">
          <mxGeometry x="0.8903" y="-1" relative="1" as="geometry">
            <mxPoint x="2" y="-12" as="offset" />
          </mxGeometry>
        </mxCell>
        <mxCell id="BzU4H87MfPjDFtRIohWu-4" value="n" style="edgeLabel;html=1;align=center;verticalAlign=middle;resizable=0;points=[];fontSize=15;" parent="BzU4H87MfPjDFtRIohWu-2" vertex="1" connectable="0">
          <mxGeometry x="-0.8819" y="-2" relative="1" as="geometry">
            <mxPoint x="14" y="-16" as="offset" />
          </mxGeometry>
        </mxCell>
        <mxCell id="BzU4H87MfPjDFtRIohWu-5" value="loaiDichVu" style="edgeLabel;html=1;align=center;verticalAlign=middle;resizable=0;points=[];fontSize=15;" parent="BzU4H87MfPjDFtRIohWu-2" vertex="1" connectable="0">
          <mxGeometry x="0.0549" relative="1" as="geometry">
            <mxPoint x="-16" y="-7" as="offset" />
          </mxGeometry>
        </mxCell>
        <mxCell id="c6o3wTcdF66c_9mshPCi-2" value="&lt;p style=&quot;margin: 4px 0px 0px; text-align: center; font-size: 15px;&quot;&gt;&lt;b&gt;CaLamViec&lt;/b&gt;&lt;/p&gt;&lt;hr style=&quot;font-size: 15px;&quot;&gt;&lt;p style=&quot;margin: 0px 0px 0px 4px; line-height: 1.6; font-size: 15px;&quot;&gt;- maCa: long&lt;br style=&quot;border-color: var(--border-color); font-size: 15px;&quot;&gt;- tenCa: String&lt;br style=&quot;border-color: var(--border-color); font-size: 15px;&quot;&gt;- gioBatDau: LocalTime&lt;br style=&quot;border-color: var(--border-color); font-size: 15px;&quot;&gt;- soGio: int&lt;/p&gt;&lt;p style=&quot;margin: 0px 0px 0px 4px; line-height: 1.6; font-size: 15px;&quot;&gt;- gioKetThuc: LocalTime&lt;/p&gt;&lt;hr style=&quot;font-size: 15px;&quot;&gt;&lt;p style=&quot;margin: 0px 0px 0px 4px; line-height: 1.6; font-size: 15px;&quot;&gt;+ CaLamViec(long, String, LocalTime, int, LocalTime)&lt;br style=&quot;border-color: var(--border-color); font-size: 15px;&quot;&gt;+ CaLamViec()&lt;br style=&quot;font-size: 15px;&quot;&gt;&lt;/p&gt;&lt;p style=&quot;margin: 0px 0px 0px 4px; line-height: 1.6; font-size: 15px;&quot;&gt;+ Các cặp get,set&lt;/p&gt;" style="verticalAlign=top;align=left;overflow=fill;fontSize=15;fontFamily=Helvetica;html=1;rounded=0;shadow=0;comic=0;labelBackgroundColor=none;strokeWidth=1;fillColor=#f8cecc;strokeColor=#b85450;" vertex="1" parent="1">
          <mxGeometry x="928" y="48" width="192" height="244.5" as="geometry" />
        </mxCell>
        <mxCell id="c6o3wTcdF66c_9mshPCi-3" value="&lt;p style=&quot;margin: 4px 0px 0px; text-align: center; font-size: 15px;&quot;&gt;&lt;b&gt;BangPhanCong&lt;/b&gt;&lt;/p&gt;&lt;hr style=&quot;font-size: 15px;&quot;&gt;&lt;p style=&quot;margin: 0px 0px 0px 4px; line-height: 1.6; font-size: 15px;&quot;&gt;- maBangPhanCong;: long&lt;br style=&quot;border-color: var(--border-color); font-size: 15px;&quot;&gt;- ngayPhanCong: Date&lt;br style=&quot;border-color: var(--border-color); font-size: 15px;&quot;&gt;-&amp;nbsp;ngayChinhSua: Date&lt;br style=&quot;border-color: var(--border-color); font-size: 15px;&quot;&gt;- ngayBatDau: Date&lt;/p&gt;&lt;p style=&quot;margin: 0px 0px 0px 4px; line-height: 1.6; font-size: 15px;&quot;&gt;- nhanVien: NhanVien&lt;/p&gt;&lt;hr style=&quot;font-size: 15px;&quot;&gt;&lt;p style=&quot;margin: 0px 0px 0px 4px; line-height: 1.6; font-size: 15px;&quot;&gt;+ CaLamViec(long, String, LocalTime, int, LocalTime)&lt;br style=&quot;border-color: var(--border-color); font-size: 15px;&quot;&gt;+ CaLamViec()&lt;br style=&quot;font-size: 15px;&quot;&gt;&lt;/p&gt;&lt;p style=&quot;margin: 0px 0px 0px 4px; line-height: 1.6; font-size: 15px;&quot;&gt;+ Các cặp get,set&lt;/p&gt;" style="verticalAlign=top;align=left;overflow=fill;fontSize=15;fontFamily=Helvetica;html=1;rounded=0;shadow=0;comic=0;labelBackgroundColor=none;strokeWidth=1;fillColor=#f8cecc;strokeColor=#b85450;" vertex="1" parent="1">
          <mxGeometry x="422" y="352" width="208" height="244.5" as="geometry" />
        </mxCell>
        <mxCell id="c6o3wTcdF66c_9mshPCi-4" value="" style="html=1;rounded=1;edgeStyle=orthogonalEdgeStyle;dashed=0;startArrow=diamondThinstartSize=12;endArrow=openThin;endSize=12;strokeColor=#595959;exitX=-0.019;exitY=0.702;exitDx=0;exitDy=0;entryX=1.037;entryY=0.081;entryDx=0;entryDy=0;entryPerimeter=0;exitPerimeter=0;fontSize=15;" edge="1" parent="1" source="c6o3wTcdF66c_9mshPCi-3" target="node4">
          <mxGeometry width="50" height="50" relative="1" as="geometry">
            <Array as="points">
              <mxPoint x="400" y="524" />
              <mxPoint x="400" y="481" />
            </Array>
            <mxPoint x="191" y="508" as="sourcePoint" />
            <mxPoint x="130" y="416" as="targetPoint" />
          </mxGeometry>
        </mxCell>
        <mxCell id="c6o3wTcdF66c_9mshPCi-5" value="1" style="edgeLabel;resizable=0;html=1;align=left;verticalAlign=top;strokeColor=default;fontSize=15;" vertex="1" connectable="0" parent="c6o3wTcdF66c_9mshPCi-4">
          <mxGeometry x="400" y="528" as="geometry" />
        </mxCell>
        <mxCell id="c6o3wTcdF66c_9mshPCi-6" value="nhanVien" style="edgeLabel;resizable=0;html=1;align=left;verticalAlign=top;strokeColor=default;fontSize=15;" vertex="1" connectable="0" parent="c6o3wTcdF66c_9mshPCi-4">
          <mxGeometry x="368" y="448" as="geometry" />
        </mxCell>
        <mxCell id="c6o3wTcdF66c_9mshPCi-7" value="1" style="edgeLabel;html=1;align=center;verticalAlign=middle;resizable=0;points=[];fontSize=15;" vertex="1" connectable="0" parent="c6o3wTcdF66c_9mshPCi-4">
          <mxGeometry x="-0.8809" y="-4" relative="1" as="geometry">
            <mxPoint x="-44" y="-24" as="offset" />
          </mxGeometry>
        </mxCell>
        <mxCell id="c6o3wTcdF66c_9mshPCi-8" value="&lt;p style=&quot;margin: 4px 0px 0px; text-align: center; font-size: 15px;&quot;&gt;&lt;b&gt;ChiTietPhanCong&lt;/b&gt;&lt;/p&gt;&lt;hr style=&quot;font-size: 15px;&quot;&gt;&lt;p style=&quot;margin: 0px 0px 0px 4px; line-height: 1.6; font-size: 15px;&quot;&gt;- maChiTietPhanCong: long&lt;br style=&quot;border-color: var(--border-color); font-size: 15px;&quot;&gt;- caLamViec: CaLamViec&lt;br style=&quot;border-color: var(--border-color); font-size: 15px;&quot;&gt;- thu: List&amp;lt;Integer&amp;gt;&lt;br style=&quot;border-color: var(--border-color); font-size: 15px;&quot;&gt;- bangPhanCong: BangPhanCong&lt;/p&gt;&lt;hr style=&quot;font-size: 15px;&quot;&gt;&lt;p style=&quot;margin: 0px 0px 0px 4px; line-height: 1.6; font-size: 15px;&quot;&gt;+ ChiTietPhanCong(long, CaLamViec, List&amp;lt;Integer&amp;gt;, BangPhanCong)&lt;br style=&quot;border-color: var(--border-color); font-size: 15px;&quot;&gt;+ ChiTietPhanCong()&lt;br style=&quot;font-size: 15px;&quot;&gt;&lt;/p&gt;&lt;p style=&quot;margin: 0px 0px 0px 4px; line-height: 1.6; font-size: 15px;&quot;&gt;+ Các cặp get,set&lt;/p&gt;" style="verticalAlign=top;align=left;overflow=fill;fontSize=15;fontFamily=Helvetica;html=1;rounded=0;shadow=0;comic=0;labelBackgroundColor=none;strokeWidth=1;fillColor=#f8cecc;strokeColor=#b85450;" vertex="1" parent="1">
          <mxGeometry x="608" y="82" width="234" height="224" as="geometry" />
        </mxCell>
        <mxCell id="c6o3wTcdF66c_9mshPCi-10" value="&lt;p style=&quot;margin: 4px 0px 0px; text-align: center;&quot;&gt;&lt;b&gt;BangChamCong&lt;/b&gt;&lt;br&gt;&lt;/p&gt;&lt;hr style=&quot;font-size: 15px;&quot;&gt;&lt;p style=&quot;margin: 0px 0px 0px 4px; line-height: 1.6; font-size: 15px;&quot;&gt;- maBangChamCong: long&lt;br style=&quot;border-color: var(--border-color); font-size: 15px;&quot;&gt;- ngayChamCong: Date&lt;br style=&quot;border-color: var(--border-color); font-size: 15px;&quot;&gt;- thu: int&lt;br style=&quot;border-color: var(--border-color); font-size: 15px;&quot;&gt;- chiTietPhanCong: ChiTietPhanCong&lt;/p&gt;&lt;p style=&quot;margin: 0px 0px 0px 4px; line-height: 1.6; font-size: 15px;&quot;&gt;- nhanVien: NhanVien&lt;/p&gt;&lt;hr style=&quot;font-size: 15px;&quot;&gt;&lt;p style=&quot;margin: 0px 0px 0px 4px; line-height: 1.6; font-size: 15px;&quot;&gt;+ BangChamCong(long, Date, int, ChiTietPhanCong, NhanVien)&lt;br style=&quot;border-color: var(--border-color); font-size: 15px;&quot;&gt;+ BangChamCong()&lt;br style=&quot;font-size: 15px;&quot;&gt;&lt;/p&gt;&lt;p style=&quot;margin: 0px 0px 0px 4px; line-height: 1.6; font-size: 15px;&quot;&gt;+ Các cặp get,set&lt;/p&gt;" style="verticalAlign=top;align=left;overflow=fill;fontSize=15;fontFamily=Helvetica;html=1;rounded=0;shadow=0;comic=0;labelBackgroundColor=none;strokeWidth=1;fillColor=#f8cecc;strokeColor=#b85450;" vertex="1" parent="1">
          <mxGeometry x="351" y="48" width="234" height="258" as="geometry" />
        </mxCell>
        <mxCell id="c6o3wTcdF66c_9mshPCi-11" value="&lt;p style=&quot;margin: 4px 0px 0px; text-align: center;&quot;&gt;&lt;b&gt;ChiTietBangLuong&lt;/b&gt;&lt;br&gt;&lt;/p&gt;&lt;hr style=&quot;font-size: 15px;&quot;&gt;&lt;p style=&quot;margin: 0px 0px 0px 4px; line-height: 1.6; font-size: 15px;&quot;&gt;- maChiTietBangLuong: long&lt;br style=&quot;border-color: var(--border-color); font-size: 15px;&quot;&gt;- bangChamCong: BangChamCong&lt;br style=&quot;border-color: var(--border-color); font-size: 15px;&quot;&gt;- bangLuong: BangLuong&lt;/p&gt;&lt;hr style=&quot;font-size: 15px;&quot;&gt;&lt;p style=&quot;margin: 0px 0px 0px 4px; line-height: 1.6; font-size: 15px;&quot;&gt;+ ChiTietBangLuong(long, BangPhanCong, BangLuong)&lt;br style=&quot;border-color: var(--border-color); font-size: 15px;&quot;&gt;+ ChiTietBangLuong()&lt;br style=&quot;font-size: 15px;&quot;&gt;&lt;/p&gt;&lt;p style=&quot;margin: 0px 0px 0px 4px; line-height: 1.6; font-size: 15px;&quot;&gt;+ Các cặp get,set&lt;/p&gt;" style="verticalAlign=top;align=left;overflow=fill;fontSize=15;fontFamily=Helvetica;html=1;rounded=0;shadow=0;comic=0;labelBackgroundColor=none;strokeWidth=1;fillColor=#f8cecc;strokeColor=#b85450;" vertex="1" parent="1">
          <mxGeometry x="64" y="98" width="256" height="208" as="geometry" />
        </mxCell>
        <mxCell id="c6o3wTcdF66c_9mshPCi-12" value="&lt;p style=&quot;margin: 4px 0px 0px; text-align: center;&quot;&gt;&lt;b&gt;BangLuong&lt;/b&gt;&lt;br&gt;&lt;/p&gt;&lt;hr style=&quot;font-size: 15px;&quot;&gt;&lt;p style=&quot;margin: 0px 0px 0px 4px; line-height: 1.6; font-size: 15px;&quot;&gt;- maBangLuong: long&lt;br style=&quot;border-color: var(--border-color); font-size: 15px;&quot;&gt;- thang: int&lt;/p&gt;&lt;p style=&quot;margin: 0px 0px 0px 4px; line-height: 1.6; font-size: 15px;&quot;&gt;- nam: int&lt;br style=&quot;border-color: var(--border-color); font-size: 15px;&quot;&gt;- nhanVien: NhanVien&lt;/p&gt;&lt;p style=&quot;margin: 0px 0px 0px 4px; line-height: 1.6; font-size: 15px;&quot;&gt;- dsChiTietBangLuong: ChiTietBangLuong&lt;/p&gt;&lt;hr style=&quot;font-size: 15px;&quot;&gt;&lt;p style=&quot;margin: 0px 0px 0px 4px; line-height: 1.6; font-size: 15px;&quot;&gt;+ BangLuong(long, int, int, NhanVien, ChiTietBangLuong)&lt;br style=&quot;border-color: var(--border-color); font-size: 15px;&quot;&gt;+ BangLuong()&lt;br style=&quot;font-size: 15px;&quot;&gt;&lt;/p&gt;&lt;p style=&quot;margin: 0px 0px 0px 4px; line-height: 1.6; font-size: 15px;&quot;&gt;+ Các cặp get,set&lt;/p&gt;&lt;p style=&quot;margin: 0px 0px 0px 4px; line-height: 1.6; font-size: 15px;&quot;&gt;+ tinhLuong(): double&lt;/p&gt;" style="verticalAlign=top;align=left;overflow=fill;fontSize=15;fontFamily=Helvetica;html=1;rounded=0;shadow=0;comic=0;labelBackgroundColor=none;strokeWidth=1;fillColor=#f8cecc;strokeColor=#b85450;" vertex="1" parent="1">
          <mxGeometry x="-240" y="64" width="288" height="288" as="geometry" />
        </mxCell>
        <mxCell id="c6o3wTcdF66c_9mshPCi-13" value="" style="html=1;rounded=1;edgeStyle=orthogonalEdgeStyle;dashed=0;startArrow=diamondThinstartSize=12;endArrow=openThin;endSize=12;strokeColor=#595959;fontSize=15;exitX=0.209;exitY=0.992;exitDx=0;exitDy=0;exitPerimeter=0;" edge="1" parent="1" source="c6o3wTcdF66c_9mshPCi-10">
          <mxGeometry width="50" height="50" relative="1" as="geometry">
            <Array as="points">
              <mxPoint x="400" y="377" />
              <mxPoint x="320" y="377" />
              <mxPoint x="320" y="446" />
            </Array>
            <mxPoint x="51" y="593" as="sourcePoint" />
            <mxPoint x="320" y="446" as="targetPoint" />
          </mxGeometry>
        </mxCell>
        <mxCell id="c6o3wTcdF66c_9mshPCi-14" value="1" style="edgeLabel;resizable=0;html=1;align=left;verticalAlign=top;strokeColor=default;fontSize=15;" vertex="1" connectable="0" parent="c6o3wTcdF66c_9mshPCi-13">
          <mxGeometry x="288" y="413" as="geometry" />
        </mxCell>
        <mxCell id="c6o3wTcdF66c_9mshPCi-15" value="n" style="edgeLabel;resizable=0;html=1;align=left;verticalAlign=top;strokeColor=default;fontSize=15;" vertex="1" connectable="0" parent="c6o3wTcdF66c_9mshPCi-13">
          <mxGeometry x="400" y="304" as="geometry" />
        </mxCell>
        <mxCell id="c6o3wTcdF66c_9mshPCi-16" value="nhanVien" style="edgeLabel;resizable=0;html=1;align=left;verticalAlign=top;strokeColor=default;fontSize=15;" vertex="1" connectable="0" parent="c6o3wTcdF66c_9mshPCi-13">
          <mxGeometry x="336" y="352" as="geometry" />
        </mxCell>
        <mxCell id="c6o3wTcdF66c_9mshPCi-18" value="" style="html=1;rounded=1;edgeStyle=orthogonalEdgeStyle;dashed=0;startArrow=diamondThinstartSize=12;endArrow=openThin;endSize=12;strokeColor=#595959;exitX=0.25;exitY=1;exitDx=0;exitDy=0;entryX=0.75;entryY=0;entryDx=0;entryDy=0;fontSize=15;" edge="1" parent="1" source="c6o3wTcdF66c_9mshPCi-8" target="c6o3wTcdF66c_9mshPCi-3">
          <mxGeometry width="50" height="50" relative="1" as="geometry">
            <Array as="points">
              <mxPoint x="667" y="336" />
              <mxPoint x="578" y="336" />
            </Array>
            <mxPoint x="434" y="540" as="sourcePoint" />
            <mxPoint x="377" y="497" as="targetPoint" />
          </mxGeometry>
        </mxCell>
        <mxCell id="c6o3wTcdF66c_9mshPCi-19" value="n" style="edgeLabel;resizable=0;html=1;align=left;verticalAlign=top;strokeColor=default;fontSize=15;" vertex="1" connectable="0" parent="c6o3wTcdF66c_9mshPCi-18">
          <mxGeometry x="640" y="304" as="geometry" />
        </mxCell>
        <mxCell id="c6o3wTcdF66c_9mshPCi-20" value="bangPhanCong" style="edgeLabel;resizable=0;html=1;align=left;verticalAlign=top;strokeColor=default;fontSize=15;" vertex="1" connectable="0" parent="c6o3wTcdF66c_9mshPCi-18">
          <mxGeometry x="656" y="320" as="geometry" />
        </mxCell>
        <mxCell id="c6o3wTcdF66c_9mshPCi-21" value="1" style="edgeLabel;html=1;align=center;verticalAlign=middle;resizable=0;points=[];fontSize=15;" vertex="1" connectable="0" parent="c6o3wTcdF66c_9mshPCi-18">
          <mxGeometry x="-0.8809" y="-4" relative="1" as="geometry">
            <mxPoint x="-102" y="23" as="offset" />
          </mxGeometry>
        </mxCell>
        <mxCell id="c6o3wTcdF66c_9mshPCi-22" value="" style="html=1;rounded=1;edgeStyle=orthogonalEdgeStyle;dashed=0;startArrow=diamondThinstartSize=12;endArrow=openThin;endSize=12;strokeColor=#595959;exitX=1;exitY=0.5;exitDx=0;exitDy=0;entryX=-0.02;entryY=0.31;entryDx=0;entryDy=0;entryPerimeter=0;fontSize=15;" edge="1" parent="1" source="c6o3wTcdF66c_9mshPCi-8" target="c6o3wTcdF66c_9mshPCi-2">
          <mxGeometry width="50" height="50" relative="1" as="geometry">
            <Array as="points">
              <mxPoint x="896" y="194" />
              <mxPoint x="896" y="124" />
            </Array>
            <mxPoint x="450" y="556" as="sourcePoint" />
            <mxPoint x="393" y="513" as="targetPoint" />
          </mxGeometry>
        </mxCell>
        <mxCell id="c6o3wTcdF66c_9mshPCi-23" value="1" style="edgeLabel;resizable=0;html=1;align=left;verticalAlign=top;strokeColor=default;fontSize=15;" vertex="1" connectable="0" parent="c6o3wTcdF66c_9mshPCi-22">
          <mxGeometry x="912" y="96" as="geometry" />
        </mxCell>
        <mxCell id="c6o3wTcdF66c_9mshPCi-24" value="caLamViec" style="edgeLabel;resizable=0;html=1;align=left;verticalAlign=top;strokeColor=default;fontSize=15;direction=west;" vertex="1" connectable="0" parent="c6o3wTcdF66c_9mshPCi-22">
          <mxGeometry x="848" y="144" as="geometry" />
        </mxCell>
        <mxCell id="c6o3wTcdF66c_9mshPCi-25" value="n" style="edgeLabel;html=1;align=center;verticalAlign=middle;resizable=0;points=[];fontSize=15;" vertex="1" connectable="0" parent="c6o3wTcdF66c_9mshPCi-22">
          <mxGeometry x="-0.8809" y="-4" relative="1" as="geometry">
            <mxPoint x="1" y="10" as="offset" />
          </mxGeometry>
        </mxCell>
        <mxCell id="c6o3wTcdF66c_9mshPCi-26" value="" style="html=1;rounded=1;edgeStyle=orthogonalEdgeStyle;dashed=0;startArrow=diamondThinstartSize=12;endArrow=openThin;endSize=12;strokeColor=#595959;entryX=0.75;entryY=0;entryDx=0;entryDy=0;fontSize=15;" edge="1" parent="1" target="c6o3wTcdF66c_9mshPCi-8">
          <mxGeometry width="50" height="50" relative="1" as="geometry">
            <Array as="points">
              <mxPoint x="784" y="64" />
            </Array>
            <mxPoint x="592" y="64" as="sourcePoint" />
            <mxPoint x="409" y="529" as="targetPoint" />
          </mxGeometry>
        </mxCell>
        <mxCell id="c6o3wTcdF66c_9mshPCi-27" value="1" style="edgeLabel;resizable=0;html=1;align=left;verticalAlign=top;strokeColor=default;fontSize=15;" vertex="1" connectable="0" parent="c6o3wTcdF66c_9mshPCi-26">
          <mxGeometry x="592" y="32" as="geometry" />
        </mxCell>
        <mxCell id="c6o3wTcdF66c_9mshPCi-28" value="" style="edgeLabel;resizable=0;html=1;align=left;verticalAlign=top;strokeColor=default;fontSize=15;" vertex="1" connectable="0" parent="c6o3wTcdF66c_9mshPCi-26">
          <mxGeometry x="672" y="32" as="geometry" />
        </mxCell>
        <mxCell id="c6o3wTcdF66c_9mshPCi-29" value="n" style="edgeLabel;html=1;align=center;verticalAlign=middle;resizable=0;points=[];fontSize=15;" vertex="1" connectable="0" parent="c6o3wTcdF66c_9mshPCi-26">
          <mxGeometry x="-0.8809" y="-4" relative="1" as="geometry">
            <mxPoint x="204" y="-5" as="offset" />
          </mxGeometry>
        </mxCell>
        <mxCell id="c6o3wTcdF66c_9mshPCi-31" value="chiTietPhanCong" style="edgeLabel;resizable=0;html=1;align=left;verticalAlign=top;strokeColor=default;fontSize=15;" vertex="1" connectable="0" parent="1">
          <mxGeometry x="636" y="32" as="geometry" />
        </mxCell>
        <mxCell id="c6o3wTcdF66c_9mshPCi-32" value="" style="html=1;rounded=1;edgeStyle=orthogonalEdgeStyle;dashed=0;startArrow=diamondThinstartSize=12;endArrow=openThin;endSize=12;strokeColor=#595959;fontSize=15;entryX=-0.007;entryY=0.109;entryDx=0;entryDy=0;exitX=0.75;exitY=0;exitDx=0;exitDy=0;entryPerimeter=0;" edge="1" parent="1" source="c6o3wTcdF66c_9mshPCi-11" target="c6o3wTcdF66c_9mshPCi-10">
          <mxGeometry width="50" height="50" relative="1" as="geometry">
            <Array as="points" />
            <mxPoint x="51" y="593" as="sourcePoint" />
            <mxPoint x="28" y="537" as="targetPoint" />
          </mxGeometry>
        </mxCell>
        <mxCell id="c6o3wTcdF66c_9mshPCi-33" value="1" style="edgeLabel;resizable=0;html=1;align=left;verticalAlign=top;strokeColor=default;fontSize=15;" vertex="1" connectable="0" parent="c6o3wTcdF66c_9mshPCi-32">
          <mxGeometry x="224" y="64" as="geometry" />
        </mxCell>
        <mxCell id="c6o3wTcdF66c_9mshPCi-34" value="1" style="edgeLabel;resizable=0;html=1;align=left;verticalAlign=top;strokeColor=default;fontSize=15;" vertex="1" connectable="0" parent="c6o3wTcdF66c_9mshPCi-32">
          <mxGeometry x="336" y="80" as="geometry" />
        </mxCell>
        <mxCell id="c6o3wTcdF66c_9mshPCi-35" value="bangChamCong" style="edgeLabel;resizable=0;html=1;align=left;verticalAlign=top;strokeColor=default;fontSize=15;" vertex="1" connectable="0" parent="c6o3wTcdF66c_9mshPCi-32">
          <mxGeometry x="208" y="32" as="geometry" />
        </mxCell>
        <mxCell id="c6o3wTcdF66c_9mshPCi-37" value="" style="html=1;rounded=1;edgeStyle=orthogonalEdgeStyle;dashed=0;startArrow=diamondThinstartSize=12;endArrow=openThin;endSize=12;strokeColor=#595959;fontSize=15;entryX=0.5;entryY=0;entryDx=0;entryDy=0;exitX=0.75;exitY=0;exitDx=0;exitDy=0;" edge="1" parent="1" source="c6o3wTcdF66c_9mshPCi-12" target="c6o3wTcdF66c_9mshPCi-11">
          <mxGeometry width="50" height="50" relative="1" as="geometry">
            <Array as="points">
              <mxPoint x="-24" y="50" />
              <mxPoint x="192" y="50" />
            </Array>
            <mxPoint x="-24" y="32" as="sourcePoint" />
            <mxPoint x="192" y="66.00000000000011" as="targetPoint" />
          </mxGeometry>
        </mxCell>
        <mxCell id="c6o3wTcdF66c_9mshPCi-38" value="1" style="edgeLabel;resizable=0;html=1;align=left;verticalAlign=top;strokeColor=default;fontSize=15;" vertex="1" connectable="0" parent="c6o3wTcdF66c_9mshPCi-37">
          <mxGeometry x="-48" y="32" as="geometry" />
        </mxCell>
        <mxCell id="c6o3wTcdF66c_9mshPCi-39" value="n" style="edgeLabel;resizable=0;html=1;align=left;verticalAlign=top;strokeColor=default;fontSize=15;" vertex="1" connectable="0" parent="c6o3wTcdF66c_9mshPCi-37">
          <mxGeometry x="160" y="64" as="geometry" />
        </mxCell>
        <mxCell id="c6o3wTcdF66c_9mshPCi-40" value="dsChiTietBangLuong" style="edgeLabel;resizable=0;html=1;align=left;verticalAlign=top;strokeColor=default;fontSize=15;" vertex="1" connectable="0" parent="c6o3wTcdF66c_9mshPCi-37">
          <mxGeometry x="48" y="16" as="geometry">
            <mxPoint x="-34" y="4" as="offset" />
          </mxGeometry>
        </mxCell>
        <mxCell id="c6o3wTcdF66c_9mshPCi-41" value="" style="html=1;rounded=1;edgeStyle=orthogonalEdgeStyle;dashed=0;startArrow=diamondThinstartSize=12;endArrow=openThin;endSize=12;strokeColor=#595959;fontSize=15;exitX=1;exitY=0.941;exitDx=0;exitDy=0;exitPerimeter=0;entryX=0.25;entryY=0;entryDx=0;entryDy=0;" edge="1" parent="1" source="c6o3wTcdF66c_9mshPCi-12" target="node4">
          <mxGeometry width="50" height="50" relative="1" as="geometry">
            <Array as="points">
              <mxPoint x="221" y="335" />
            </Array>
            <mxPoint x="416" y="320" as="sourcePoint" />
            <mxPoint x="336" y="462" as="targetPoint" />
          </mxGeometry>
        </mxCell>
        <mxCell id="c6o3wTcdF66c_9mshPCi-42" value="1" style="edgeLabel;resizable=0;html=1;align=left;verticalAlign=top;strokeColor=default;fontSize=15;" vertex="1" connectable="0" parent="c6o3wTcdF66c_9mshPCi-41">
          <mxGeometry x="192" y="413" as="geometry" />
        </mxCell>
        <mxCell id="c6o3wTcdF66c_9mshPCi-43" value="n" style="edgeLabel;resizable=0;html=1;align=left;verticalAlign=top;strokeColor=default;fontSize=15;" vertex="1" connectable="0" parent="c6o3wTcdF66c_9mshPCi-41">
          <mxGeometry x="64" y="336" as="geometry" />
        </mxCell>
        <mxCell id="c6o3wTcdF66c_9mshPCi-44" value="nhanVien" style="edgeLabel;resizable=0;html=1;align=left;verticalAlign=top;strokeColor=default;fontSize=15;" vertex="1" connectable="0" parent="c6o3wTcdF66c_9mshPCi-41">
          <mxGeometry x="144" y="352" as="geometry" />
        </mxCell>
      </root>
    </mxGraphModel>
  </diagram>
</mxfile>
